<?xml version="1.0" standalone="no"?>
<!DOCTYPE svg PUBLIC "-//W3C//DTD SVG 20010904//EN"
 "http://www.w3.org/TR/2001/REC-SVG-20010904/DTD/svg10.dtd">
<svg version="1.0" xmlns="http://www.w3.org/2000/svg"
 viewBox="700 250 1300 1300"
 preserveAspectRatio="xMidYMid meet">

<g transform="translate(0.000000,1492.000000) scale(0.100000,-0.100000)"
fill="currentColor" stroke="none">
<path d="M10525 10679 c-278 -38 -548 -117 -735 -216 -409 -217 -720 -539
-905 -937 -151 -327 -217 -722 -170 -1026 36 -238 106 -435 206 -582 133 -195
370 -379 578 -447 160 -52 270 -131 317 -226 23 -48 26 -64 23 -133 -4 -68 -8
-85 -34 -122 -58 -83 -136 -114 -234 -90 -37 9 -59 22 -82 47 -37 43 -46 37
-64 -41 -27 -113 26 -208 140 -251 100 -39 287 4 368 83 84 81 135 225 121
341 -17 147 -79 253 -195 335 -34 23 -15 32 88 40 291 22 556 137 760 330 104
99 158 169 226 296 125 233 161 485 103 723 -59 246 -170 388 -362 464 -149
59 -284 54 -429 -16 -90 -44 -138 -90 -177 -170 -24 -49 -35 -154 -24 -216 7
-34 72 -115 92 -115 6 0 15 19 21 43 45 166 268 237 420 133 219 -150 253
-530 81 -886 -35 -72 -58 -101 -147 -191 -120 -120 -191 -162 -331 -199 -69
-19 -109 -23 -211 -22 -177 2 -219 21 -136 63 62 32 143 104 174 156 20 34 27
63 31 119 5 85 -5 94 -52 45 -46 -48 -163 -102 -250 -114 -106 -15 -194 1
-310 57 -163 79 -255 170 -332 331 -139 287 -160 584 -68 941 56 219 143 418
258 584 58 85 199 230 268 278 76 52 77 43 8 -59 -90 -132 -140 -300 -121
-402 23 -123 80 -200 176 -236 101 -38 191 -20 267 53 52 51 53 49 -44 95 -61
29 -69 36 -95 88 -38 80 -36 141 11 257 51 128 74 162 175 259 143 138 260
201 445 242 164 36 400 2 577 -83 101 -49 236 -158 301 -243 161 -207 278
-534 334 -929 21 -147 30 -708 15 -975 -30 -554 -134 -1363 -252 -1960 -11
-55 -38 -190 -59 -300 -57 -291 -144 -667 -201 -863 -110 -382 -249 -662 -372
-746 -66 -46 -126 -57 -172 -32 -32 18 -65 62 -65 89 0 36 -21 24 -56 -30 -68
-105 -79 -179 -40 -266 42 -96 117 -137 248 -137 233 1 486 140 787 434 168
165 266 278 467 536 194 249 229 299 430 610 155 241 199 311 380 606 50 82
122 199 159 259 38 61 83 135 100 165 18 30 64 108 104 173 39 64 71 119 71
121 0 4 243 429 294 514 14 23 29 42 34 42 5 0 12 -73 16 -162 4 -90 13 -219
21 -288 74 -647 100 -1199 74 -1560 -29 -412 -139 -862 -250 -1025 -50 -75
-98 -113 -155 -125 -73 -15 -101 -6 -126 43 l-21 41 -22 -29 c-80 -99 -50
-280 55 -332 37 -19 60 -23 140 -23 158 1 206 19 398 147 280 189 494 428 819
918 165 248 205 315 371 620 221 406 367 698 552 1105 26 58 64 141 85 185 21
44 46 100 57 124 39 92 175 306 236 372 90 98 148 124 272 124 88 0 100 -3
157 -33 79 -41 139 -112 149 -178 9 -63 -2 -161 -24 -197 -48 -83 -138 -115
-214 -78 -53 25 -75 61 -84 135 -4 31 -10 59 -14 61 -14 9 -94 -25 -122 -51
-14 -15 -36 -53 -48 -85 l-22 -59 23 -73 c65 -205 295 -270 488 -139 61 42
109 105 143 190 19 48 22 76 23 182 0 120 -1 128 -32 193 -67 141 -195 238
-344 259 -80 11 -198 5 -260 -14 -22 -6 -42 -9 -44 -6 -8 8 47 130 243 543 85
180 311 631 358 715 105 189 176 310 307 517 108 171 129 202 139 203 4 0 40
-30 80 -66 76 -68 195 -136 298 -169 30 -10 59 -21 64 -26 13 -12 -8 -34 -68
-68 -114 -64 -203 -202 -194 -301 7 -66 57 -160 87 -160 4 0 13 24 20 53 16
72 56 156 94 195 79 83 225 132 542 181 161 25 213 40 310 89 237 118 391 293
451 512 25 90 25 290 0 380 -40 145 -141 285 -257 356 -149 90 -376 136 -569
114 -132 -14 -211 -33 -306 -70 -239 -95 -441 -238 -623 -439 -40 -45 -78 -80
-83 -79 -6 2 -25 50 -44 106 -78 238 -172 352 -359 434 -211 93 -490 46 -650
-110 -79 -77 -110 -129 -145 -242 -61 -192 -23 -348 114 -478 70 -67 131 -94
221 -100 118 -7 220 45 275 141 37 64 41 147 10 215 -21 46 -38 53 -58 22 -21
-35 -102 -80 -142 -80 -57 0 -134 44 -169 97 -36 55 -45 95 -38 172 6 70 23
104 77 159 78 78 212 120 319 100 79 -14 171 -67 213 -123 65 -84 83 -162 83
-350 0 -150 -2 -168 -32 -276 -63 -224 -100 -320 -410 -1049 -240 -564 -350
-828 -429 -1030 -312 -797 -762 -1766 -992 -2140 -194 -315 -292 -448 -292
-397 0 7 18 68 40 136 44 133 85 316 121 541 21 131 24 176 23 460 -1 414 -35
763 -118 1220 -14 74 -41 252 -61 395 -20 143 -42 282 -50 310 -14 49 -14 50
17 100 18 27 53 77 78 110 126 163 299 448 405 668 87 182 123 279 172 463 35
129 37 149 38 284 0 117 -4 156 -19 200 -96 279 -273 351 -537 219 -170 -85
-370 -313 -498 -567 -62 -123 -155 -346 -189 -453 -58 -181 -122 -450 -146
-614 -16 -106 -46 -529 -46 -655 -1 -72 -3 -80 -68 -210 -37 -74 -120 -227
-186 -340 -65 -113 -160 -284 -211 -380 -227 -431 -605 -1089 -771 -1340 -34
-52 -108 -158 -164 -235 -57 -77 -126 -173 -153 -214 -59 -85 -128 -161 -134
-145 -2 6 20 60 48 120 74 159 73 156 139 313 185 438 329 962 444 1613 20
108 38 207 41 220 3 13 23 165 44 338 47 373 59 672 42 1050 -14 328 -56 558
-157 851 -127 373 -321 617 -654 825 -180 113 -407 188 -679 225 -149 20 -373
24 -486 8z m7510 -303 c83 -22 141 -55 190 -107 62 -67 87 -126 93 -220 19
-318 -169 -516 -525 -556 -52 -6 -127 18 -183 58 -66 48 -99 144 -69 202 34
66 80 83 140 52 39 -21 51 -12 43 33 -27 146 -212 189 -328 76 -48 -47 -64
-79 -76 -162 -14 -88 -2 -161 40 -243 16 -32 28 -59 26 -59 -3 0 -42 14 -88
31 -120 44 -249 115 -321 176 -34 29 -65 53 -69 53 -19 0 -5 35 26 68 18 21
66 75 106 121 162 185 430 387 588 442 137 48 306 62 407 35z m-3466 -282 c13
-9 29 -32 37 -50 17 -40 19 -199 4 -294 -33 -205 -196 -613 -352 -880 -123
-212 -151 -255 -163 -253 -18 4 -24 76 -24 308 -1 193 3 257 23 396 29 194 44
257 95 399 78 213 150 328 232 368 52 26 116 28 148 6z"/>
</g>
</svg>
